<?xml version="1.0" standalone="no"?>
<!DOCTYPE svg PUBLIC "-//W3C//DTD SVG 20010904//EN"
 "http://www.w3.org/TR/2001/REC-SVG-20010904/DTD/svg10.dtd">
<svg version="1.0" xmlns="http://www.w3.org/2000/svg"
 width="2560.000000pt" height="2560.000000pt" viewBox="0 0 2560.000000 2560.000000"
 preserveAspectRatio="xMidYMid meet">

<g transform="translate(0.000000,2560.000000) scale(0.100000,-0.100000)"
fill="#000000" stroke="none">
<path d="M0 12800 l0 -12800 12800 0 12800 0 0 12800 0 12800 -12800 0 -12800
0 0 -12800z m6400 10000 l0 -240 -532 0 c-293 0 -569 -4 -613 -10 -296 -34
-397 -55 -570 -114 -401 -136 -689 -316 -966 -604 -395 -410 -627 -928 -669
-1492 -5 -69 -10 -353 -10 -632 l0 -508 -241 0 -241 0 4 628 c4 530 7 643 22
732 110 681 377 1205 842 1661 189 184 353 310 559 429 385 223 767 341 1235
384 19 1 293 4 608 4 l572 2 0 -240z m14160 216 c477 -75 871 -229 1240 -484
273 -188 545 -460 733 -732 218 -316 377 -690 451 -1060 48 -239 49 -257 54
-912 l4 -628 -241 0 -241 0 0 503 c-1 671 -15 844 -90 1105 -286 989 -1122
1671 -2135 1742 -71 5 -356 9 -632 10 l-503 0 0 241 0 241 628 -5 c519 -4 645
-7 732 -21z m-9375 -3560 c193 -57 351 -216 406 -408 l24 -83 0 -830 0 -830
-23 -80 c-32 -109 -73 -177 -157 -261 -88 -87 -185 -138 -300 -159 -125 -22
-1609 -21 -1726 1 -145 27 -269 103 -354 217 -57 75 -77 114 -102 192 -17 56
-18 113 -18 920 l0 860 23 72 c66 210 255 370 477 402 33 5 427 8 875 7 748
-2 820 -4 875 -20z m3198 14 c247 -36 437 -211 493 -455 18 -74 19 -137 19
-875 0 -884 0 -878 -65 -1015 -85 -176 -242 -292 -441 -324 -40 -7 -351 -11
-840 -11 -871 0 -882 1 -1018 68 -133 65 -253 206 -296 349 -28 89 -35 276
-35 923 0 651 8 845 35 933 66 214 253 373 480 406 84 12 1584 13 1668 1z
m3922 -829 c71 -28 179 -97 216 -137 41 -44 93 -132 119 -199 19 -50 23 -79
23 -170 0 -96 -3 -119 -27 -180 -15 -38 -41 -91 -57 -117 -69 -107 -214 -204
-338 -228 -30 -6 -209 -10 -405 -10 l-351 0 -44 -172 c-24 -95 -50 -198 -56
-228 -7 -30 -43 -172 -79 -315 -37 -143 -73 -287 -80 -320 -8 -33 -44 -177
-80 -320 -37 -143 -73 -287 -80 -320 -8 -33 -44 -179 -81 -325 -37 -146 -73
-290 -80 -320 -7 -30 -43 -172 -79 -315 -37 -143 -73 -287 -80 -320 -8 -33
-44 -177 -80 -320 -37 -143 -73 -287 -80 -320 -8 -33 -44 -177 -80 -320 -37
-143 -73 -287 -80 -320 -8 -33 -44 -177 -80 -320 -37 -143 -73 -287 -80 -320
-8 -33 -44 -179 -81 -325 -37 -146 -73 -290 -80 -320 -7 -30 -43 -174 -80
-320 -37 -146 -73 -290 -80 -320 -7 -30 -43 -172 -79 -315 -37 -143 -73 -287
-80 -320 -8 -33 -46 -188 -86 -345 -109 -436 -110 -439 -110 -453 0 -7 30 -28
68 -46 364 -179 659 -522 792 -919 113 -340 113 -687 -2 -1027 -173 -512 -616
-915 -1141 -1039 -142 -33 -208 -40 -377 -40 -342 2 -611 83 -895 272 -136 90
-337 291 -427 427 -110 166 -190 348 -231 525 -37 161 -42 199 -41 380 1 159
5 202 27 305 15 66 33 141 41 168 l15 47 -1149 0 c-914 0 -1150 -3 -1150 -12
0 -7 7 -32 15 -54 41 -120 59 -255 60 -454 0 -223 -15 -326 -72 -500 -153
-464 -498 -826 -958 -1005 -180 -71 -341 -98 -565 -98 -194 0 -267 9 -440 57
-572 158 -1025 656 -1136 1251 -28 150 -26 452 4 596 64 311 200 570 415 796
271 283 605 447 995 487 135 14 436 16 2616 16 l2463 0 127 508 c70 279 129
517 132 529 l6 23 -2728 2 c-2168 3 -2741 6 -2789 16 -33 7 -96 20 -140 28
-388 73 -771 282 -1076 586 -446 443 -739 1043 -939 1923 -78 345 -170 1056
-170 1318 0 203 71 493 160 652 92 163 164 257 289 377 198 191 455 330 727
393 197 46 104 45 4170 45 l3831 0 168 673 c183 732 190 758 242 862 165 327
470 540 848 589 17 2 219 3 450 2 416 -1 421 -2 480 -25z m1028 -2358 c120
-45 205 -133 246 -256 71 -209 -53 -434 -278 -506 -23 -8 -302 -11 -888 -11
l-853 0 -72 28 c-90 34 -173 111 -215 198 -26 54 -28 69 -28 174 0 106 2 119
28 170 35 68 114 150 174 180 99 49 84 49 983 47 843 -2 845 -2 903 -24z m815
-1337 c158 -42 268 -160 302 -323 42 -206 -115 -426 -330 -461 -41 -7 -454
-13 -1110 -18 -575 -3 -1135 -8 -1245 -9 -110 -2 -224 1 -254 6 -105 16 -208
80 -265 163 -55 80 -69 128 -69 236 0 82 3 103 26 153 54 118 142 194 265 229
61 16 115 18 602 19 294 1 740 5 990 8 840 13 1030 12 1088 -3z m-33 -1452
c494 -3 900 -10 925 -15 161 -34 283 -166 310 -333 27 -168 -60 -338 -212
-414 -68 -35 -122 -47 -208 -47 -115 0 -2487 16 -2960 20 -272 3 -515 7 -540
11 -78 11 -165 60 -225 127 -78 86 -100 146 -100 272 0 87 4 108 27 157 46 98
135 180 239 218 59 22 -8 22 2744 4z m-17075 -7596 c1 -672 15 -845 90 -1106
234 -807 821 -1406 1615 -1647 299 -91 360 -96 1058 -102 l597 -5 0 -240 0
-240 -627 5 c-653 4 -684 6 -913 53 -456 92 -893 301 -1255 599 -115 95 -323
305 -412 415 -283 353 -489 791 -577 1230 -48 239 -49 257 -54 913 l-4 627
241 0 241 0 0 -502z m19998 -125 c-5 -656 -6 -674 -54 -913 -88 -439 -294
-877 -577 -1230 -89 -110 -297 -320 -412 -415 -362 -298 -799 -507 -1255 -599
-229 -47 -260 -49 -912 -53 l-628 -5 0 241 0 241 503 0 c276 1 561 5 632 10
1006 71 1846 752 2130 1726 80 275 87 346 92 1027 l5 597 240 0 240 0 -4 -627z
m-11686 232 c91 -60 104 -197 26 -272 -41 -40 -76 -53 -138 -53 -86 0 -137 32
-171 105 -45 98 1 204 106 243 48 18 131 7 177 -23z m948 -830 l0 -755 -160 0
-160 0 2 743 3 742 100 11 c55 6 126 12 158 13 l57 1 0 -755z m-3312 650 c188
-44 316 -187 372 -413 56 -223 37 -540 -41 -695 -37 -73 -95 -142 -154 -182
-51 -35 -55 -40 -34 -43 51 -6 156 -45 202 -74 26 -17 63 -48 82 -71 38 -44
98 -162 93 -179 -5 -14 -262 -101 -265 -91 -2 5 -24 45 -50 91 -90 159 -166
204 -374 221 -68 5 -144 17 -169 26 -181 64 -291 229 -330 495 -19 126 -9 392
19 495 59 225 192 377 367 419 78 19 204 19 282 1z m4502 -710 l0 -695 -165 0
-165 0 0 695 0 695 165 0 165 0 0 -695z m727 681 c-3 -7 -87 -143 -188 -301
-100 -159 -184 -296 -186 -306 -4 -14 220 -427 394 -726 l25 -43 -194 0 -193
0 -78 153 c-42 83 -127 248 -188 366 -60 117 -108 220 -105 228 5 12 326 563
362 621 14 21 19 22 185 22 141 0 170 -2 166 -14z m3083 -181 l0 -135 171 0
171 0 -6 -37 c-3 -21 -10 -71 -16 -110 l-12 -73 -154 0 -155 0 3 -279 c3 -278
3 -280 27 -305 45 -48 166 -53 266 -12 31 13 40 14 47 4 19 -28 99 -190 96
-194 -18 -17 -156 -68 -215 -80 -232 -44 -420 21 -497 174 -40 79 -46 137 -46
422 l0 270 -110 0 -110 0 0 110 0 110 110 0 110 0 0 115 c0 63 1 115 3 116 4
1 281 36 300 38 15 1 17 -12 17 -134z m-2309 -116 c98 -21 179 -72 229 -143
52 -77 60 -131 60 -423 0 -277 3 -301 46 -324 14 -7 23 -18 20 -24 -2 -6 -17
-53 -32 -104 l-28 -93 -47 5 c-70 9 -144 44 -184 89 l-36 39 -39 -35 c-51 -46
-86 -63 -177 -87 -210 -53 -393 17 -466 180 -15 35 -20 68 -21 136 0 79 3 97
27 147 71 145 241 218 509 218 l120 0 -4 55 c-5 60 -27 93 -83 123 -58 32
-274 16 -388 -27 -24 -9 -26 -7 -61 93 -20 56 -36 105 -36 109 0 12 171 58
268 72 104 15 235 13 323 -6z m1525 0 c24 -6 46 -15 49 -19 7 -11 -44 -400
-55 -428 -9 -22 -14 -23 -102 -20 l-93 3 -3 98 c-3 96 -3 98 -25 91 -74 -22
-153 -103 -200 -202 -31 -65 -32 -71 -35 -229 l-3 -163 105 0 106 0 0 -105 0
-105 -335 0 -335 0 0 105 0 105 70 0 70 0 0 320 0 320 -70 0 -70 0 0 105 0
105 193 0 193 0 28 -115 28 -116 25 48 c78 149 178 212 336 213 43 0 98 -5
123 -11z m-6615 -401 c0 -269 4 -393 12 -418 28 -82 143 -80 233 5 l34 32 0
382 0 381 165 0 165 0 0 -530 0 -530 -145 0 -145 0 0 33 c0 17 -3 42 -6 54
l-6 23 -19 -24 c-51 -64 -200 -126 -304 -126 -125 0 -216 53 -267 157 l-33 68
-3 437 -3 438 160 0 161 0 1 -382z m1529 -38 l0 -420 133 0 c74 0 136 -2 138
-4 2 -2 3 -52 1 -110 l-3 -106 -445 0 -445 0 3 108 3 107 145 2 c80 1 148 3
153 3 4 0 7 140 7 310 l0 310 -150 0 -150 0 0 110 0 110 305 0 305 0 0 -420z
m1538 388 c-12 -18 -87 -120 -166 -226 -79 -107 -145 -199 -148 -206 -3 -7 68
-127 157 -267 89 -140 173 -271 186 -291 l23 -38 -182 0 -183 0 -173 290 -174
290 174 239 173 240 168 0 168 1 -23 -32z"/>
<path d="M9537 18863 c-4 -3 -7 -332 -7 -729 0 -567 3 -725 13 -731 16 -10
1076 -17 1295 -8 l172 7 0 734 0 734 -733 0 c-404 0 -737 -3 -740 -7z m870
-459 c185 -90 226 -333 81 -481 -58 -59 -126 -87 -213 -87 -261 -1 -400 302
-227 495 96 107 233 135 359 73z"/>
<path d="M12810 18137 l0 -734 128 -6 c70 -4 345 -7 612 -7 267 0 542 3 613 7
l127 6 0 734 0 733 -740 0 -740 0 0 -733z m863 274 c196 -84 243 -354 85 -496
-63 -57 -120 -79 -208 -79 -90 -1 -152 25 -216 89 -112 112 -111 307 1 420 38
37 100 73 150 86 45 12 136 2 188 -20z"/>
<path d="M8299 15436 c-147 -52 -244 -157 -279 -304 -10 -43 -9 -86 5 -245 14
-167 35 -354 50 -452 11 -72 36 -222 40 -245 3 -14 7 -41 10 -60 4 -19 10 -53
15 -75 51 -222 65 -280 82 -340 50 -176 113 -362 154 -453 13 -29 24 -55 24
-58 0 -12 102 -210 149 -288 229 -379 503 -579 868 -635 51 -8 885 -11 2852
-11 1530 0 2781 1 2781 3 0 1 179 719 399 1595 l398 1592 -3741 0 -3741 0 -66
-24z m3960 -107 c208 -104 211 -404 4 -509 -40 -21 -62 -25 -133 -25 -71 0
-93 4 -133 25 -127 64 -188 219 -138 350 29 76 71 123 143 159 87 44 170 44
257 0z m-1134 -268 c197 -50 351 -198 412 -396 17 -56 18 -112 18 -865 0 -877
1 -855 -58 -980 -42 -88 -158 -205 -247 -248 -126 -62 -143 -63 -1011 -59
-865 3 -822 0 -950 68 -81 43 -184 146 -226 225 -69 130 -68 111 -68 989 0
869 -2 840 62 973 40 82 148 192 231 235 82 43 122 56 204 67 105 14 1574 6
1633 -9z m3410 -16 c211 -108 210 -408 -3 -512 l-57 -28 -689 -3 c-765 -3
-751 -4 -838 63 -149 113 -142 354 13 461 77 53 79 53 825 51 l690 -2 59 -30z
m-2002 -707 c63 -27 129 -101 151 -170 15 -49 16 -120 14 -753 -3 -700 -3
-700 -25 -741 -37 -69 -74 -105 -138 -135 -143 -68 -315 -7 -381 136 l-24 50
0 706 c0 509 3 715 12 740 53 158 233 234 391 167z m1984 -137 c61 -28 127
-94 154 -154 l24 -52 0 -630 0 -630 -24 -53 c-14 -31 -43 -70 -72 -96 -87 -78
-63 -76 -769 -76 l-627 0 -61 31 c-65 32 -99 66 -135 133 -31 59 -31 184 1
243 33 63 77 109 130 135 47 23 51 23 512 28 l465 5 5 465 5 465 27 51 c32 61
94 117 152 138 60 21 162 20 213 -3z m-981 -149 c62 -32 97 -65 128 -122 58
-107 43 -237 -39 -328 -141 -157 -390 -117 -479 77 -29 66 -29 170 2 232 31
63 96 125 157 149 65 26 172 23 231 -8z"/>
<path d="M9570 13796 c0 -633 2 -704 16 -710 27 -10 1368 -7 1384 4 13 8 15
94 18 657 2 356 0 672 -3 701 l-6 52 -705 0 -704 0 0 -704z m806 267 c33 -11
67 -34 105 -72 47 -48 58 -66 74 -123 37 -138 -23 -271 -151 -334 -188 -92
-414 50 -414 260 0 197 197 334 386 269z"/>
<path d="M9469 9046 c-233 -65 -396 -274 -396 -509 0 -243 165 -455 402 -517
57 -14 212 -12 265 4 106 33 207 99 269 177 241 303 95 745 -280 844 -65 18
-197 18 -260 1z"/>
<path d="M14790 9041 c-130 -42 -228 -115 -300 -224 -55 -85 -80 -172 -80
-284 0 -150 48 -268 152 -371 103 -104 221 -152 371 -152 112 0 199 25 284 80
284 186 326 578 89 816 -62 61 -124 98 -217 130 -87 30 -215 32 -299 5z"/>
<path d="M8748 5560 c-19 -16 -43 -48 -52 -70 -45 -113 -61 -442 -31 -629 28
-168 78 -231 185 -231 43 0 65 6 90 23 79 52 102 151 104 442 2 384 -42 495
-198 495 -53 0 -66 -4 -98 -30z"/>
<path d="M14801 4889 c-68 -12 -109 -35 -138 -79 -60 -88 7 -200 119 -200 46
0 129 41 161 79 25 30 27 39 27 122 l0 89 -57 -1 c-32 -1 -82 -5 -112 -10z"/>
</g>
</svg>
